<svg id="Filled" height="512" viewBox="0 0 512 512" width="512" xmlns="http://www.w3.org/2000/svg"><path d="m168 168h176v32h-176z" fill="#e9eef2"/><path d="m120 200h272v32h-272z" fill="#ad6643"/><path d="m344 488h-176l-32-256h240z" fill="#e9eef2"/><path d="m360 408h-208l-16-112h240z" fill="#ad6643"/><ellipse cx="256" cy="352" fill="#8c5237" rx="40" ry="24"/><path d="m160 16a8 8 0 0 0 -8 8v16a24.028 24.028 0 0 0 24 24h160a8.009 8.009 0 0 1 8 8v16a8.009 8.009 0 0 1 -8 8h-64a24.028 24.028 0 0 0 -24 24v16a8 8 0 0 0 16 0v-16a8.009 8.009 0 0 1 8-8h64a24.028 24.028 0 0 0 24-24v-16a24.028 24.028 0 0 0 -24-24h-160a8.009 8.009 0 0 1 -8-8v-16a8 8 0 0 0 -8-8z"/><path d="m112 200v32a8 8 0 0 0 8 8h8.938l6.01 48.078a7.984 7.984 0 0 0 -6.867 9.053l16 112a7.993 7.993 0 0 0 6.847 6.789l9.134 73.072a8 8 0 0 0 7.938 7.008h176a8 8 0 0 0 7.938-7.008l9.135-73.072a8 8 0 0 0 6.847-6.789l16-112a7.984 7.984 0 0 0 -6.867-9.053l6.009-48.078h8.938a8 8 0 0 0 8-8v-32a8 8 0 0 0 -8-8h-40v-24a8 8 0 0 0 -8-8h-176a8 8 0 0 0 -8 8v24h-40a8 8 0 0 0 -8 8zm224.938 280h-161.876l-8-64h177.876zm16.124-80h-194.124l-13.714-96h221.552zm7.876-112h-209.876l-6-48h221.876zm-184.938-112h160v16h-160zm-48 32h256v16h-256z"/><path d="m256 384c26.916 0 48-14.056 48-32s-21.084-32-48-32-48 14.056-48 32 21.084 32 48 32zm0-48c18.314 0 32 8.447 32 16s-13.686 16-32 16-32-8.447-32-16 13.685-16 32-16z"/></svg>